<svg width="30" height="47" viewBox="0 0 30 47" fill="none" xmlns="http://www.w3.org/2000/svg">
<path d="M15.056 1.10443C8.41932 1.10443 3.04858 6.44849 3.04858 13.0522C3.04858 19.6559 8.41932 25 15.056 25C21.6927 25 27.0635 19.6559 27.0635 13.0522C27.0635 6.44849 21.6927 1.10443 15.056 1.10443Z" stroke="white" stroke-width="1.5" stroke-linecap="round" stroke-linejoin="round"/>
<path d="M12 16.6924C12.9245 18.604 16.5861 18.319 17.4199 16.4912C17.8006 15.6528 17.5287 14.7641 16.8761 14.1101C16.0242 13.2381 14.6465 13.2214 13.577 12.6345C12.8882 12.2656 12.3082 11.6787 12.1269 10.9576C11.7644 9.51556 12.852 8.22439 14.5378 8.03994C15.8973 7.88902 17.1662 8.14055 18 9.2305" stroke="white" stroke-width="1.5" stroke-linecap="round" stroke-linejoin="round"/>
<path d="M15 20L15 18" stroke="white" stroke-width="1.5" stroke-linecap="round" stroke-linejoin="round"/>
<path d="M15 8L15 6" stroke="white" stroke-width="1.5" stroke-linecap="round" stroke-linejoin="round"/>
<path d="M21.6919 23.5L21.6919 32.3019L29.0486 32.3019L14.9395 45.708L1.00007 32.323L8.42031 32.3019L8.42031 23" stroke="white" stroke-width="1.5" stroke-linecap="round" stroke-linejoin="round"/>
<path d="M15 36L15 25" stroke="white" stroke-width="1.5" stroke-linecap="round" stroke-linejoin="round"/>
</svg>
