<svg width="32" height="35" viewBox="0 0 32 35" fill="none" xmlns="http://www.w3.org/2000/svg">
<path d="M31 1H1V8.37906H31V1Z" stroke="white" stroke-width="1.5" stroke-linecap="round" stroke-linejoin="round"/>
<path d="M7.33338 6C8.14058 6 8.79494 5.32843 8.79494 4.5C8.79494 3.67157 8.14058 3 7.33338 3C6.52619 3 5.87183 3.67157 5.87183 4.5C5.87183 5.32843 6.52619 6 7.33338 6Z" stroke="white" stroke-width="1.5" stroke-linecap="round" stroke-linejoin="round"/>
<path d="M28.073 4.69043H16.3657" stroke="white" stroke-width="1.5" stroke-linecap="round" stroke-linejoin="round"/>
<path d="M16.3657 8.37939V12.9913" stroke="white" stroke-width="1.5" stroke-linecap="round" stroke-linejoin="round"/>
<path d="M16.3657 21.2925V25.9044" stroke="white" stroke-width="1.5" stroke-linecap="round" stroke-linejoin="round"/>
<path d="M31 12.9907H1V21.2922H31V12.9907Z" stroke="white" stroke-width="1.5" stroke-linecap="round" stroke-linejoin="round"/>
<path d="M7.33338 19C8.14058 19 8.79494 18.3284 8.79494 17.5C8.79494 16.6716 8.14058 16 7.33338 16C6.52619 16 5.87183 16.6716 5.87183 17.5C5.87183 18.3284 6.52619 19 7.33338 19Z" stroke="white" stroke-width="1.5" stroke-linecap="round" stroke-linejoin="round"/>
<path d="M28.0733 17.604H15.6343" stroke="white" stroke-width="1.5" stroke-linecap="round" stroke-linejoin="round"/>
<path d="M31 25.9045H1V33.2836H31V25.9045Z" stroke="white" stroke-width="1.5" stroke-linecap="round" stroke-linejoin="round"/>
<path d="M7.33338 31C8.14058 31 8.79494 30.3284 8.79494 29.5C8.79494 28.6716 8.14058 28 7.33338 28C6.52619 28 5.87183 28.6716 5.87183 29.5C5.87183 30.3284 6.52619 31 7.33338 31Z" stroke="white" stroke-width="1.5" stroke-linecap="round" stroke-linejoin="round"/>
<path d="M28.073 29.5947H16.3657" stroke="white" stroke-width="1.5" stroke-linecap="round" stroke-linejoin="round"/>
</svg>
